<?xml version="1.0" encoding="UTF-8"?>
<svg version="1.1" xmlns="http://www.w3.org/2000/svg" width="310" height="310">
<style>
    @media (prefers-color-scheme: dark){
        circle { fill: #fafafa; }
    }
    @media (prefers-color-scheme: light){
        circle { fill: #222222; }
    }

</style>
<path d="M0 0 C5.13297338 9.03168217 7.19321734 16.98838613 6.875 27.375 C6.74193465 31.810656 6.74193465 31.810656 8.75 35.6875 C9.86375 36.8321875 9.86375 36.8321875 11 38 C14.66445956 44.90757011 16.07546811 51.01875173 16.31640625 58.83203125 C16.37924805 60.77045898 16.37924805 60.77045898 16.44335938 62.74804688 C16.48316352 64.10286192 16.52287591 65.45767967 16.5625 66.8125 C16.60573723 68.18686105 16.64935312 69.56121024 16.69335938 70.93554688 C16.7992979 74.29026669 16.90137189 77.6450586 17 81 C18.17226327 78.56505954 19.33874067 76.12769222 20.5 73.6875 C21.04140625 72.55235962 21.04140625 72.55235962 21.59375 71.39428711 C23.90436168 66.49276168 26.01459808 61.54816826 28.01708984 56.51367188 C32.17693726 46.13988447 36.14084802 37.32547954 46.5 32 C49.06283006 30.7611177 49.06283006 30.7611177 51 29 C51.85012189 25.52604513 51.62251186 22.49990001 51 19 C62.52823579 18.23145095 74.26457174 22.84096113 83.0625 30.1875 C84.86948136 31.7989022 85.91262027 32.82524053 87 35 C89.92001287 35.80393096 89.92001287 35.80393096 93.4921875 36.40234375 C94.15276154 36.5255751 94.81333557 36.64880646 95.493927 36.77577209 C97.61952642 37.17126624 99.74699794 37.55516223 101.875 37.9375 C104.64434657 38.44069644 107.41256818 38.949539 110.1796875 39.46484375 C110.84997986 39.58951019 111.52027222 39.71417664 112.21087646 39.84262085 C117.89859658 40.92673081 123.45372184 42.34583395 129 44 C129.61681035 54.77704744 128.69437966 63.76313076 121.8125 72.4375 C116.35803854 78.17408878 108.76603623 81.01076449 100.91796875 81.2109375 C100.15033203 81.23929687 99.38269531 81.26765625 98.59179688 81.296875 C97.00087495 81.34857027 95.40969706 81.39295423 93.81835938 81.4296875 C87.15867999 81.69674231 82.35361752 82.96019815 77.1875 87.4375 C73.1347834 92.18496801 72.59722711 95.62610067 72.7109375 101.75732422 C73.20609817 107.3119898 74.63397523 112.62484187 75.9937439 118.02157593 C80.59155895 136.55723676 84.47933563 158.0348794 76 176 C75.51402344 177.04414063 75.02804688 178.08828125 74.52734375 179.1640625 C70.20643906 187.72415264 64.71766352 195.34376461 59 203 C58.55027832 203.60650391 58.10055664 204.21300781 57.63720703 204.83789062 C52.82242068 211.3301193 47.94306854 217.77233821 43.03125 224.19140625 C36.26879047 233.02989859 29.51835274 241.85911299 23.12890625 250.97265625 C21.72081033 252.97499449 20.29129412 254.96245591 18.83984375 256.93359375 C18.19144531 257.82175781 17.54304687 258.70992188 16.875 259.625 C16.31554687 260.38039063 15.75609375 261.13578125 15.1796875 261.9140625 C13.67181861 264.18089199 13.67181861 264.18089199 14 268 C26.87 268 39.74 268 53 268 C53 269.32 53 270.64 53 272 C40.31729149 272.74136918 27.70428397 273.13809004 15 273 C15 273.66 15 274.32 15 275 C14.34 275 13.68 275 13 275 C13 275.66 13 276.32 13 277 C10.0173094 278.52448631 7.181798 279.93940067 4 281 C4 281.66 4 282.32 4 283 C3.01 283 2.02 283 1 283 C0.01 281.515 0.01 281.515 -1 280 C-1.61875 279.855625 -2.2375 279.71125 -2.875 279.5625 C-5.78983091 278.79092711 -7.07744832 277.26586448 -9 275 C-9 274.34 -9 273.68 -9 273 C-10.093125 273.01160156 -11.18625 273.02320313 -12.3125 273.03515625 C-25.56441696 273.12812158 -38.76489499 272.63890095 -52 272 C-51.67 270.68 -51.34 269.36 -51 268 C-29.715 267.505 -29.715 267.505 -8 267 C-8.91567415 262.08948363 -8.91567415 262.08948363 -11.5546875 258.50390625 C-12.08126953 257.87025146 -12.60785156 257.23659668 -13.15039062 256.58374023 C-13.71951172 255.91673096 -14.28863281 255.24972168 -14.875 254.5625 C-16.07142426 253.12853103 -17.26671861 251.69361864 -18.4609375 250.2578125 C-19.0600293 249.54141602 -19.65912109 248.82501953 -20.27636719 248.08691406 C-22.75242685 245.088988 -25.12473804 242.01536639 -27.5 238.9375 C-32.89132397 232.00636179 -38.64271953 225.41097624 -44.42431641 218.80517578 C-58.58314468 202.58416924 -71.47271611 186.07425848 -81.1875 166.75 C-84.66848776 160.28389168 -89.37709535 156.71843758 -96.25 154.25 C-101.42815142 152.85897485 -106.67735232 152.51832301 -112 152.0625 C-122.10698528 151.1882671 -130.6928081 149.64706129 -138 142 C-143.9755613 133.31130084 -145.38280657 125.37831137 -145 115 C-121.29949239 108 -121.29949239 108 -115 108 C-114.814375 107.175 -114.62875 106.35 -114.4375 105.5 C-111.39619687 98.09508803 -106.07193813 93.46380643 -99 90 C-99 86.7 -99 83.4 -99 80 C-86.17980775 80.31811891 -75.99045865 81.26085761 -66.21875 90.46484375 C-63.14529176 93.97659445 -60.74906423 97.79195511 -58.31982422 101.76586914 C-52.92560326 110.65405835 -52.92560326 110.65405835 -45 117 C-44.93941406 116.40832031 -44.87882812 115.81664062 -44.81640625 115.20703125 C-44.69072266 114.02173828 -44.69072266 114.02173828 -44.5625 112.8125 C-44.44068359 111.64654297 -44.44068359 111.64654297 -44.31640625 110.45703125 C-44 108 -44 108 -43.48046875 105.5703125 C-42.35208748 99.53393138 -42.27375231 93.29978437 -44.125 87.4375 C-47.81667403 82.63832376 -52.83169156 81.67654494 -58.53515625 80.86523438 C-60.08687374 80.66446959 -61.63895851 80.46652208 -63.19140625 80.27148438 C-72.68774523 78.90910637 -80.02685968 74.76776838 -86.1875 67.375 C-90.39887722 59.53312518 -91.4162958 51.78762594 -91 43 C-86.17591401 41.19746998 -81.45548954 39.81846648 -76.37109375 38.96484375 C-63.74563324 37.39675292 -63.74563324 37.39675292 -54.125 30 C-53.5990625 29.13246094 -53.073125 28.26492187 -52.53125 27.37109375 C-48.33820619 20.87829377 -39.18714446 18.59570175 -32 17 C-31.01 17 -30.02 17 -29 17 C-28.74089844 16.40960937 -28.48179687 15.81921875 -28.21484375 15.2109375 C-23.08181531 5.86915584 -10.46397731 -1.1846012 0 0 Z " transform="translate(163,13)"/>
</svg>
