<?xml version="1.0" encoding="UTF-8"?>
<svg version="1.1" xmlns="http://www.w3.org/2000/svg" width="310" height="310">
<style>
    @media (prefers-color-scheme: dark){
        circle { fill: #fafafa; }
    }
    @media (prefers-color-scheme: light){
        circle { fill: #222222; }
    }

</style>
<path d="M0 0 C5.42919096 11.31426818 7.54787596 22.2577252 6.77734375 34.79296875 C7.05547737 37.54990727 7.9771384 38.20952981 10 40 C10 40.66 10 41.32 10 42 C10.66 42.33 11.32 42.66 12 43 C18.11720294 53.32277996 18.32084977 64.433361 18.625 76.1875 C18.66367188 77.42564453 18.70234375 78.66378906 18.7421875 79.93945312 C18.83547069 82.95949626 18.92126406 85.9795486 19 89 C19.44730469 87.97261719 19.89460937 86.94523437 20.35546875 85.88671875 C23.47595853 78.73115766 26.62022861 71.59297366 29.8984375 64.5078125 C30.98440084 62.03551299 31.89701678 59.53947086 32.8125 57 C37.00493758 46.51890604 44.17000065 38.5422775 54 33 C54.99 33 55.98 33 57 33 C56.91621094 32.21753906 56.83242187 31.43507813 56.74609375 30.62890625 C56.59333984 29.11103516 56.59333984 29.11103516 56.4375 27.5625 C56.33308594 26.55316406 56.22867188 25.54382813 56.12109375 24.50390625 C56.08113281 23.67761719 56.04117188 22.85132812 56 22 C57 21 57 21 59.046875 20.98046875 C71.13223503 21.90608158 85.18915923 25.09005529 93.4765625 34.71484375 C93.85554688 35.24207031 94.23453125 35.76929688 94.625 36.3125 C97.87620068 39.99149024 101.36357899 40.15278746 106 41 C107.01352539 41.18973389 108.02705078 41.37946777 109.07128906 41.57495117 C113.64012624 42.41966425 118.21289938 43.24156217 122.78710938 44.05664062 C130.27672247 45.41723248 137.63997372 47.05626911 145 49 C145.88510119 61.76840425 144.25680505 71.48956064 136.1875 82 C128.42145333 90.08712354 118.58531812 91.81344979 107.76953125 92.16015625 C97.8702061 92.48131548 90.62236332 93.14651852 83.5 100.625 C78.88363201 111.01182798 81.95940406 121.67749576 84.3125 132.25 C84.63877443 133.77834664 84.96365345 135.30699187 85.28710938 136.8359375 C86.97528977 144.78515958 86.97528977 144.78515958 89.08911133 152.62963867 C93.38509345 168.52511795 90.07790032 186.08937725 83.41479492 200.70361328 C82.96303391 201.69515411 82.51127289 202.68669495 82.04582214 203.70828247 C81.70070084 204.46454926 81.35557953 205.22081604 81 206 C59.90341094 206.32732146 38.80724154 206.5740534 17.70862675 206.72537041 C7.91157622 206.79750431 -1.88389502 206.89580496 -11.67993164 207.05615234 C-20.22024252 207.19587838 -28.75940973 207.28605587 -37.30083185 207.31723893 C-41.82249326 207.3354643 -46.34088364 207.37814584 -50.86149406 207.48022079 C-55.12173856 207.57563269 -59.37738414 207.60449752 -63.63859558 207.58350754 C-65.19763825 207.58734346 -66.75684253 207.61499579 -68.31495857 207.66887665 C-79.75424285 208.04488175 -79.75424285 208.04488175 -83.50979161 204.62525415 C-86.68874237 200.76664668 -88.85804047 196.49478327 -91 192 C-91.45699248 191.14651411 -91.91398497 190.29302822 -92.38482571 189.41367912 C-93.84253323 186.66710881 -95.01647684 183.95056949 -96 181 C-97.81075979 179.86744905 -97.81075979 179.86744905 -100 179 C-100.72058594 178.67 -101.44117188 178.34 -102.18359375 178 C-102.92738281 177.67 -103.67117187 177.34 -104.4375 177 C-105.17871094 176.67 -105.91992188 176.34 -106.68359375 176 C-107.44800781 175.67 -108.21242187 175.34 -109 175 C-109.70898438 174.64808594 -110.41796875 174.29617187 -111.1484375 173.93359375 C-116.23072703 172.26966608 -121.59013113 172.24014582 -126.90039062 171.87695312 C-138.83835194 170.92019233 -148.87381467 167.6318779 -157.3125 158.8125 C-164.40511276 149.74422908 -164.53337241 139.97858214 -164 129 C-159.14257865 127.1841843 -154.38225368 125.80530614 -149.265625 124.9296875 C-148.27949219 124.754375 -147.29335937 124.5790625 -146.27734375 124.3984375 C-144.24771923 124.04750887 -142.21350452 123.72222557 -140.17578125 123.421875 C-134.5591105 122.45281369 -134.5591105 122.45281369 -130.30419922 118.94750977 C-128.98407025 116.60711745 -128.98407025 116.60711745 -128.02783203 114.23999023 C-125.10201552 107.86365616 -119.03631357 104.07975182 -113 101 C-113 97.37 -113 93.74 -113 90 C-98.00996593 89.49785246 -87.7768808 90.67889844 -76 101 C-73.68181309 103.49451432 -71.83858574 106.13888529 -70 109 C-68.64724679 111.04260346 -67.29298762 113.08421009 -65.9375 115.125 C-64.92236328 116.65640625 -64.92236328 116.65640625 -63.88671875 118.21875 C-60.75955949 122.82855826 -58.17295123 126.63087528 -53 129 C-52.49279088 126.14694871 -51.99406366 123.29283186 -51.5 120.4375 C-51.35691406 119.63763672 -51.21382813 118.83777344 -51.06640625 118.01367188 C-49.73353704 110.23860148 -49.24741146 104.22720756 -53 97 C-55.36558012 93.7332465 -58.19388482 93.09630263 -62 92 C-64.4960713 91.73140102 -66.99692789 91.50523655 -69.5 91.3125 C-79.20730208 90.30428637 -88.84795769 86.94947611 -95.625 79.5625 C-101.20753246 71.93590181 -103.17025951 65.13336659 -103.0625 55.75 C-103.05798828 55.00492188 -103.05347656 54.25984375 -103.04882812 53.4921875 C-103.03709246 51.6614236 -103.0191585 49.83070127 -103 48 C-96.0561062 45.08031099 -89.07891804 43.67245518 -81.6875 42.3125 C-80.50865234 42.08755859 -79.32980469 41.86261719 -78.11523438 41.63085938 C-69.44540748 40 -69.44540748 40 -66 40 C-65.835 39.175 -65.67 38.35 -65.5 37.5 C-62.02362347 29.38845477 -55.48684117 25.22198457 -47.546875 21.96484375 C-46.70640625 21.64644531 -45.8659375 21.32804687 -45 21 C-43.88625 20.566875 -42.7725 20.13375 -41.625 19.6875 C-38.96692328 18.99133705 -36.734986 18.83911847 -34 19 C-33.76152344 18.25621094 -33.52304688 17.51242188 -33.27734375 16.74609375 C-27.92014873 5.2289436 -11.8862931 -1.24150837 0 0 Z "  transform="translate(164,47)"/>
</svg>
